<svg width="90" height="90" viewBox="0 0 90 90" fill="none" xmlns="http://www.w3.org/2000/svg">
<path d="M79.9889 48.4139C80.3264 54.2264 77.6639 59.8139 72.9014 63.2264L75.7889 68.8139C76.6514 70.5014 76.7639 72.4889 76.0139 74.2514C75.3014 76.0139 73.8389 77.4014 72.0389 78.0014L69.0764 78.9389C67.8429 79.3544 66.5111 79.3794 65.2629 79.0103C64.0146 78.6411 62.9106 77.896 62.1014 76.8764L54.1514 67.5014C50.8139 66.9389 47.6639 65.5139 45.0014 63.3764C43.1264 63.9389 41.2514 64.2389 39.3764 64.2389C36.0764 64.2389 32.7764 63.2264 30.0014 61.2764C28.0139 61.8764 25.9889 62.1389 23.9264 62.1014C20.9639 62.1389 18.0389 61.5389 15.3014 60.4139C12.6665 59.2382 10.4149 57.3456 8.80374 54.952C7.19252 52.5583 6.28647 49.7601 6.18894 46.8764C5.88894 44.1764 6.33894 41.4389 7.50144 38.9639C6.41394 36.1514 6.30143 33.0764 7.23893 30.2264C8.62644 26.6639 11.2514 23.7014 14.5139 21.8264C16.6889 15.4889 22.8014 11.2514 29.5139 11.7014C35.5139 6.07637 44.7014 5.47637 51.3764 10.3139C52.9514 9.90137 54.6014 9.67637 56.2514 9.67637C61.3514 9.56387 66.1889 11.8139 69.3764 15.8264C77.0264 17.8139 82.5014 24.6389 82.8014 32.5889C82.9889 36.7514 81.8639 40.8389 79.5764 44.3264C79.8389 45.6764 79.9889 47.0264 79.9889 48.4139ZM61.2389 43.1264C63.3764 43.3889 65.0639 45.0014 65.0639 47.1389C65.0639 48.1334 64.6688 49.0873 63.9656 49.7905C63.2623 50.4938 62.3085 50.8889 61.3139 50.8889H58.9514C57.7514 54.2639 55.6514 57.2264 52.8764 59.4764C53.8139 59.8139 54.7889 60.0014 55.7639 60.2639C75.0014 60.0014 72.7514 48.2639 72.7514 48.0764C72.6519 45.5005 71.5332 43.0696 69.6415 41.3185C67.7497 39.5674 65.2398 38.6395 62.6639 38.7389C61.6694 38.7389 60.7155 38.3438 60.0123 37.6405C59.309 36.9373 58.9139 35.9834 58.9139 34.9889C58.9139 33.9943 59.309 33.0405 60.0123 32.3372C60.7155 31.634 61.6694 31.2389 62.6639 31.2389C67.2764 31.3514 71.7014 33.0764 75.1514 36.1139C75.3389 35.0264 75.4514 33.9014 75.4514 32.7764C75.2264 28.1264 73.1264 24.0764 64.6889 23.2889C60.0014 12.1889 48.1889 18.3389 48.1889 21.7889C48.0764 22.6514 48.9764 24.4889 49.1264 24.6014C50.121 24.6014 51.0748 24.9965 51.7781 25.6997C52.4813 26.403 52.8764 27.3568 52.8764 28.3514C52.8764 30.4139 51.1889 32.1014 49.1264 32.1014C47.1389 32.0264 45.2639 31.2764 43.7639 30.0014C41.9639 31.1639 39.9014 31.8764 37.7639 32.1014C35.6264 32.2889 33.8639 30.7889 33.7514 28.7264C33.6823 28.2365 33.7141 27.7377 33.8448 27.2606C33.9755 26.7834 34.2023 26.3381 34.5113 25.9518C34.8203 25.5655 35.2051 25.2464 35.6419 25.0142C36.0787 24.782 36.5584 24.6415 37.0514 24.6014C37.6514 24.5264 40.5764 24.0764 40.5764 21.7139C40.5764 19.2389 41.5139 16.8764 43.1264 15.0014C39.6764 14.0639 35.9639 15.3014 32.2139 19.8389C25.3139 18.7514 22.5014 19.6889 20.4389 27.0014C16.8764 28.7639 15.0014 30.0014 14.1764 33.7514C18.2264 32.9264 22.3889 33.2639 26.2514 34.6889C28.1264 35.4014 29.1764 37.5014 28.4639 39.5264C27.7514 41.4764 25.5764 42.4514 23.6264 41.7389C20.8889 40.5389 17.8139 40.4639 15.0014 41.5139C13.8014 42.5264 13.8014 44.6264 13.8014 46.2764C13.8014 49.0514 15.1889 51.6389 17.5514 53.1389C19.5389 54.1514 21.7514 54.6764 23.9639 54.6389C23.4014 53.6639 22.9139 52.6514 22.5014 51.6014C22.2062 50.6379 22.2961 49.5975 22.7523 48.699C23.2084 47.8004 23.9953 47.1138 24.9473 46.7835C25.8993 46.4532 26.9423 46.505 27.8569 46.928C28.7716 47.3509 29.4865 48.1121 29.8514 49.0514C31.3514 53.3264 35.1764 56.2514 39.6764 56.7389C44.8139 56.4764 49.3889 53.4389 51.6389 48.7514C52.5014 43.5764 56.6639 43.1264 61.2389 43.1264ZM68.7389 71.1389L66.4139 66.2639L63.7514 66.8639L67.5014 71.5514L68.7389 71.1389ZM51.3014 38.8514C51.334 37.8934 50.9986 36.9593 50.3639 36.241C49.7293 35.5226 48.8436 35.0746 47.8889 34.9889C45.2264 34.8389 42.6389 35.7389 40.6514 37.5014C38.5139 39.6764 37.3889 42.6764 37.5014 45.7139C37.5014 46.7084 37.8965 47.6623 38.5998 48.3655C39.303 49.0688 40.2569 49.4639 41.2514 49.4639C43.3889 49.4639 45.0014 47.7764 45.0014 45.7139C45.0014 44.7014 45.2639 43.6889 45.8639 42.8639C46.3139 42.4889 46.8764 42.3014 47.4764 42.3014C49.5389 42.4139 51.3014 40.8764 51.3014 38.8514Z" fill="#2C6393"/>
</svg>
