<svg width="330" height="271" viewBox="0 0 330 271" fill="none" xmlns="http://www.w3.org/2000/svg">
<path d="M169.571 1L329 67.5975V134.195L169.571 203L1 134.195V67.5975L169.571 1Z" fill="#26547C"/>
<path d="M1 67.5974L169.571 1L329 67.5974M1 67.5974V134.195L169.571 203M1 67.5974L169.571 136.403M169.571 136.403V203M169.571 136.403L329 67.5974M329 67.5974V134.195L169.571 203" stroke="black" stroke-linecap="round" stroke-linejoin="round"/>
<path d="M169.571 270.403L1 201.597V135L169.571 203.805L329 135V201.597L169.571 270.403Z" fill="#11395C"/>
<path d="M169.571 203.805V270.403M169.571 203.805L1 135V201.597L169.571 270.403M169.571 203.805L329 135V201.597L169.571 270.403" stroke="black" stroke-linecap="round" stroke-linejoin="round"/>
</svg>
