<svg width="322" height="78" viewBox="0 0 322 78" fill="none" xmlns="http://www.w3.org/2000/svg">
<path d="M104.239 29.5068C108.12 29.5068 111.254 29.953 113.64 30.8454C116.048 31.7379 117.833 33.2218 118.995 35.2972C120.178 37.3726 120.769 40.2055 120.769 43.796V64H113.453L112.862 60.5756H112.426C111.181 61.8623 109.624 62.8585 107.756 63.5642C105.889 64.249 103.886 64.5915 101.748 64.5915C99.154 64.5915 96.9436 64.1868 95.1173 63.3774C93.3117 62.568 91.9419 61.4369 91.008 59.9841C90.0741 58.5313 89.6071 56.8399 89.6071 54.9097C89.6071 51.7966 90.8005 49.3892 93.1872 47.6873C95.5739 45.9647 99.3511 44.9167 104.519 44.5431L112.177 43.8271V43.1422C112.177 41.2951 111.855 39.8631 111.212 38.8461C110.569 37.8084 109.572 37.0716 108.223 36.6358C106.895 36.2 105.1 35.9821 102.838 35.9821C101.26 35.9821 99.5379 36.117 97.67 36.3868C95.8229 36.6358 94.0692 37.0198 92.4089 37.5386V31.1568C94.1522 30.6171 96.072 30.2124 98.1681 29.9426C100.285 29.6521 102.309 29.5068 104.239 29.5068ZM104.332 58.7077C105.764 58.7077 107.155 58.4691 108.504 57.9917C109.853 57.5144 111.077 56.7984 112.177 55.8437V48.7769L105.235 49.3995C102.765 49.6486 101.001 50.1674 99.9426 50.9561C98.8842 51.724 98.3549 52.8136 98.3549 54.2249C98.3549 55.6361 98.853 56.7361 99.8492 57.5247C100.845 58.3134 102.34 58.7077 104.332 58.7077ZM170.061 29.5068C173.942 29.5068 176.983 30.6587 179.183 32.9624C181.383 35.2453 182.483 38.8046 182.483 43.6403V64H173.766V44.1073C173.766 41.5545 173.237 39.7178 172.178 38.5971C171.141 37.4764 169.667 36.916 167.758 36.916C166.326 36.916 164.987 37.1754 163.742 37.6943C162.497 38.2131 161.407 39.0018 160.473 40.0602C160.618 41.0772 160.691 42.2394 160.691 43.5469V64H152.068V44.1073C152.068 41.5338 151.58 39.697 150.604 38.5971C149.629 37.4764 148.197 36.916 146.308 36.916C144.835 36.916 143.434 37.2273 142.106 37.8499C140.777 38.4725 139.636 39.3753 138.681 40.5583V64H129.902V30.036H137.125L137.685 33.585H138.121C139.47 32.2775 141.058 31.2709 142.884 30.5653C144.71 29.8596 146.682 29.5068 148.799 29.5068C150.916 29.5068 152.794 29.8908 154.434 30.6587C156.073 31.4266 157.401 32.5888 158.418 34.1453C160.141 32.5265 161.998 31.3539 163.991 30.6275C165.983 29.8804 168.007 29.5068 170.061 29.5068ZM191.617 30.036H198.964L199.493 33.7406H199.898C201.226 32.4124 202.814 31.3747 204.661 30.6275C206.529 29.8804 208.573 29.5068 210.794 29.5068C213.824 29.5068 216.512 30.0983 218.857 31.2813C221.223 32.4435 223.091 34.2802 224.46 36.7915C225.851 39.3027 226.546 42.4781 226.546 46.3176C226.546 50.2401 225.778 53.5711 224.243 56.3106C222.727 59.0502 220.496 61.1256 217.549 62.5368C214.623 63.9274 211.084 64.6226 206.934 64.6226C205.253 64.6226 203.073 64.467 200.396 64.1557V77.6977H191.617V30.036ZM206.436 57.9294C210.275 57.9294 213.129 57.0266 214.997 55.221C216.864 53.4154 217.798 50.6552 217.798 46.9402C217.798 40.0291 214.706 36.5736 208.521 36.5736C206.965 36.5736 205.481 36.8434 204.07 37.383C202.658 37.9226 201.434 38.7735 200.396 39.9357V57.2757C202.285 57.7115 204.298 57.9294 206.436 57.9294ZM233.997 64V13.6922H242.776V64H233.997ZM252.298 64V30.036H261.077V64H252.298ZM256.688 24.2457C254.862 24.2457 253.481 23.8721 252.547 23.1249C251.634 22.357 251.178 21.2467 251.178 19.7939C251.178 18.3411 251.634 17.2308 252.547 16.4629C253.481 15.695 254.862 15.311 256.688 15.311C258.514 15.311 259.884 15.695 260.797 16.4629C261.731 17.2308 262.198 18.3411 262.198 19.7939C262.198 21.2467 261.731 22.357 260.797 23.1249C259.884 23.8721 258.514 24.2457 256.688 24.2457ZM286.757 64.6226C283.104 64.6226 279.929 63.9585 277.231 62.6302C274.533 61.302 272.447 59.32 270.974 56.6842C269.5 54.0484 268.763 50.8316 268.763 47.0336C268.763 43.2356 269.479 40.0291 270.911 37.4141C272.364 34.7991 274.429 32.8275 277.106 31.4992C279.804 30.1709 283.021 29.5068 286.757 29.5068C290.514 29.5068 293.73 30.1709 296.408 31.4992C299.106 32.8067 301.171 34.768 302.603 37.383C304.035 39.9772 304.751 43.1941 304.751 47.0336C304.751 50.7901 304.004 53.9862 302.509 56.6219C301.036 59.2577 298.94 61.2501 296.221 62.5991C293.523 63.9481 290.368 64.6226 286.757 64.6226ZM286.757 57.8361C292.921 57.8361 296.003 54.2456 296.003 47.0647C296.003 43.329 295.214 40.6102 293.637 38.9084C292.06 37.1858 289.766 36.3245 286.757 36.3245C283.768 36.3245 281.475 37.1754 279.877 38.8772C278.3 40.5791 277.511 43.2875 277.511 47.0025C277.511 54.2249 280.593 57.8361 286.757 57.8361Z" fill="black"/>
<path d="M18.7823 29.2758L18.7823 62.891C18.7823 65.8997 20.5983 68.6108 23.3806 69.7557C28.2661 71.7661 33.6286 68.174 33.6286 62.891L33.6286 29.2758C33.6286 23.8821 28.0581 20.289 23.1443 22.5132C20.4886 23.7153 18.7823 26.3606 18.7823 29.2758Z" fill="#587C9C"/>
<path d="M53.2626 16.7153L53.2626 50.8894C53.2626 53.7354 51.5673 56.3078 48.952 57.4302C44.2549 59.4461 39.0273 56.0009 39.0273 50.8894L39.0273 16.7153C39.0273 11.4942 44.462 8.04991 49.1835 10.2788C51.6739 11.4545 53.2626 13.9613 53.2626 16.7153Z" fill="#587C9C"/>
</svg>
