<svg width="322" height="78" viewBox="0 0 322 78" fill="none" xmlns="http://www.w3.org/2000/svg">
<path d="M104.24 29.5068C108.121 29.5068 111.255 29.953 113.641 30.8454C116.049 31.7379 117.834 33.2218 118.996 35.2972C120.179 37.3726 120.77 40.2055 120.77 43.796V64H113.454L112.863 60.5756H112.427C111.182 61.8623 109.625 62.8585 107.757 63.5642C105.89 64.249 103.887 64.5915 101.749 64.5915C99.1549 64.5915 96.9446 64.1868 95.1183 63.3774C93.3127 62.568 91.9429 61.4369 91.009 59.9841C90.075 58.5313 89.6081 56.8399 89.6081 54.9097C89.6081 51.7966 90.8014 49.3892 93.1881 47.6873C95.5749 45.9647 99.3521 44.9167 104.52 44.5431L112.178 43.8271V43.1422C112.178 41.2951 111.856 39.8631 111.213 38.8461C110.57 37.8084 109.573 37.0716 108.224 36.6358C106.896 36.2 105.101 35.9821 102.839 35.9821C101.261 35.9821 99.5389 36.117 97.671 36.3868C95.8239 36.6358 94.0702 37.0198 92.4099 37.5386V31.1568C94.1532 30.6171 96.073 30.2124 98.1691 29.9426C100.286 29.6521 102.31 29.5068 104.24 29.5068ZM104.333 58.7077C105.765 58.7077 107.156 58.4691 108.505 57.9917C109.854 57.5144 111.078 56.7984 112.178 55.8437V48.7769L105.236 49.3995C102.766 49.6486 101.002 50.1674 99.9436 50.9561C98.8851 51.724 98.3559 52.8136 98.3559 54.2249C98.3559 55.6361 98.854 56.7361 99.8502 57.5247C100.846 58.3134 102.341 58.7077 104.333 58.7077ZM170.062 29.5068C173.943 29.5068 176.984 30.6587 179.184 32.9624C181.384 35.2453 182.484 38.8046 182.484 43.6403V64H173.767V44.1073C173.767 41.5545 173.238 39.7178 172.179 38.5971C171.142 37.4764 169.668 36.916 167.759 36.916C166.327 36.916 164.988 37.1754 163.743 37.6943C162.498 38.2131 161.408 39.0018 160.474 40.0602C160.619 41.0772 160.692 42.2394 160.692 43.5469V64H152.069V44.1073C152.069 41.5338 151.581 39.697 150.605 38.5971C149.63 37.4764 148.198 36.916 146.309 36.916C144.836 36.916 143.435 37.2273 142.107 37.8499C140.778 38.4725 139.637 39.3753 138.682 40.5583V64H129.903V30.036H137.126L137.686 33.585H138.122C139.471 32.2775 141.059 31.2709 142.885 30.5653C144.711 29.8596 146.683 29.5068 148.8 29.5068C150.917 29.5068 152.795 29.8908 154.435 30.6587C156.074 31.4266 157.402 32.5888 158.419 34.1453C160.142 32.5265 161.999 31.3539 163.992 30.6275C165.984 29.8804 168.008 29.5068 170.062 29.5068ZM191.618 30.036H198.965L199.494 33.7406H199.899C201.227 32.4124 202.815 31.3747 204.662 30.6275C206.53 29.8804 208.574 29.5068 210.795 29.5068C213.825 29.5068 216.513 30.0983 218.858 31.2813C221.224 32.4435 223.092 34.2802 224.461 36.7915C225.852 39.3027 226.547 42.4781 226.547 46.3176C226.547 50.2401 225.779 53.5711 224.244 56.3106C222.728 59.0502 220.497 61.1256 217.55 62.5368C214.624 63.9274 211.085 64.6226 206.935 64.6226C205.254 64.6226 203.074 64.467 200.397 64.1557V77.6977H191.618V30.036ZM206.437 57.9294C210.276 57.9294 213.13 57.0266 214.998 55.221C216.865 53.4154 217.799 50.6552 217.799 46.9402C217.799 40.0291 214.707 36.5736 208.522 36.5736C206.966 36.5736 205.482 36.8434 204.071 37.383C202.659 37.9226 201.435 38.7735 200.397 39.9357V57.2757C202.286 57.7115 204.299 57.9294 206.437 57.9294ZM233.998 64V13.6922H242.777V64H233.998ZM252.299 64V30.036H261.078V64H252.299ZM256.689 24.2457C254.863 24.2457 253.482 23.8721 252.548 23.1249C251.635 22.357 251.179 21.2467 251.179 19.7939C251.179 18.3411 251.635 17.2308 252.548 16.4629C253.482 15.695 254.863 15.311 256.689 15.311C258.515 15.311 259.885 15.695 260.798 16.4629C261.732 17.2308 262.199 18.3411 262.199 19.7939C262.199 21.2467 261.732 22.357 260.798 23.1249C259.885 23.8721 258.515 24.2457 256.689 24.2457ZM286.758 64.6226C283.105 64.6226 279.93 63.9585 277.232 62.6302C274.534 61.302 272.448 59.32 270.975 56.6842C269.501 54.0484 268.764 50.8316 268.764 47.0336C268.764 43.2356 269.48 40.0291 270.912 37.4141C272.365 34.7991 274.43 32.8275 277.107 31.4992C279.805 30.1709 283.022 29.5068 286.758 29.5068C290.515 29.5068 293.731 30.1709 296.409 31.4992C299.107 32.8067 301.172 34.768 302.604 37.383C304.036 39.9772 304.752 43.1941 304.752 47.0336C304.752 50.7901 304.005 53.9862 302.51 56.6219C301.037 59.2577 298.941 61.2501 296.222 62.5991C293.524 63.9481 290.369 64.6226 286.758 64.6226ZM286.758 57.8361C292.922 57.8361 296.004 54.2456 296.004 47.0647C296.004 43.329 295.215 40.6102 293.638 38.9084C292.061 37.1858 289.767 36.3245 286.758 36.3245C283.769 36.3245 281.476 37.1754 279.878 38.8772C278.301 40.5791 277.512 43.2875 277.512 47.0025C277.512 54.2249 280.594 57.8361 286.758 57.8361Z" fill="white"/>
<path d="M18.7823 29.2758L18.7823 62.891C18.7823 65.8997 20.5983 68.6108 23.3806 69.7557C28.2661 71.7661 33.6286 68.174 33.6286 62.891L33.6286 29.2758C33.6286 23.8821 28.0581 20.289 23.1443 22.5132C20.4886 23.7153 18.7823 26.3606 18.7823 29.2758Z" fill="#587C9C"/>
<path d="M53.2626 16.7153L53.2626 50.8894C53.2626 53.7354 51.5673 56.3078 48.952 57.4302C44.2549 59.4461 39.0273 56.0009 39.0273 50.8894L39.0273 16.7153C39.0273 11.4942 44.462 8.04991 49.1835 10.2788C51.6739 11.4545 53.2626 13.9613 53.2626 16.7153Z" fill="#587C9C"/>
</svg>
