<svg width="459" height="927" viewBox="0 0 459 927" fill="none" xmlns="http://www.w3.org/2000/svg">
<rect x="6.59922" y="2.39902" width="447" height="921.6" rx="69.6" fill="#2C6393" stroke="#C9C9C9" stroke-width="4.8"/>
<path d="M0 148.204C0 147.541 0.537258 147.004 1.2 147.004H4.2V181.804H1.2C0.537259 181.804 0 181.267 0 180.604V148.204Z" fill="#C9C9C9"/>
<path d="M1.19824 214.807C1.19824 214.145 1.7355 213.607 2.39824 213.607H4.19824V283.207H2.39824C1.7355 283.207 1.19824 282.67 1.19824 282.007V214.807Z" fill="#C9C9C9"/>
<path d="M1.19824 303.007C1.19824 302.344 1.7355 301.807 2.39824 301.807H4.19824V371.407H2.39824C1.7355 371.407 1.19824 370.869 1.19824 370.207V303.007Z" fill="#C9C9C9"/>
<path d="M459.001 346.205C459.001 346.868 458.464 347.405 457.801 347.405L456.001 347.405L456.001 237.005L457.801 237.005C458.464 237.005 459.001 237.543 459.001 238.205L459.001 346.205Z" fill="#C9C9C9"/>
<path fill-rule="evenodd" clip-rule="evenodd" d="M7.96973 70.1783C7.96973 34.0589 37.2503 4.77832 73.3697 4.77832H387.226C423.345 4.77832 452.626 34.0589 452.626 70.1783V857.378C452.626 893.498 423.345 922.778 387.226 922.778H73.3697C37.2503 922.778 7.96973 893.498 7.96973 857.378V70.1783ZM22.8673 72.655C22.8673 44.8199 45.4322 22.255 73.2673 22.255H387.576C415.411 22.255 437.976 44.8198 437.976 72.655V856.928C437.976 884.763 415.411 907.328 387.576 907.328H73.2673C45.4322 907.328 22.8673 884.763 22.8673 856.928V72.655ZM120.402 28.0971C120.305 24.8564 117.647 22.2589 114.383 22.2589H120.402V28.0971ZM340.19 22.2589H120.404V33.7739C120.404 45.7033 130.074 55.3739 142.004 55.3739H318.592C330.521 55.3739 340.192 45.7033 340.192 33.7739V28.2798H340.192C340.192 24.9553 342.887 22.2601 346.212 22.2589H340.192H340.19Z" fill="#C9C9C9"/>
<rect x="204.598" y="29.998" width="51" height="8.4" rx="4.2" fill="#4F5560"/>
<circle cx="275.398" cy="34.198" r="4.2" fill="#4F5560"/>
<path d="M83.4119 109.415L75.2001 101.203L83.4119 92.9734L80.8838 90.4453L70.126 101.203L80.8838 111.961L83.4119 109.415Z" fill="#E2E2E2"/>
<path d="M116.843 315.514C113.429 315.514 110.275 315.063 107.38 314.16V308.621C108.721 309.073 110.275 309.431 112.042 309.697C113.808 309.949 115.428 310.076 116.903 310.076C119.041 310.076 120.568 309.79 121.485 309.219C122.401 308.648 122.859 307.804 122.859 306.689C122.859 306.065 122.72 305.553 122.441 305.155C122.162 304.756 121.69 304.418 121.026 304.139C120.362 303.86 119.433 303.608 118.237 303.382L115.807 302.904C112.606 302.279 110.282 301.277 108.834 299.896C107.4 298.501 106.683 296.642 106.683 294.317C106.683 291.409 107.818 289.178 110.089 287.624C112.374 286.056 115.754 285.273 120.229 285.273C123.191 285.273 125.861 285.592 128.238 286.229V291.787C127.162 291.455 125.927 291.196 124.533 291.01C123.151 290.811 121.77 290.712 120.389 290.712C117.972 290.712 116.238 291.004 115.189 291.588C114.153 292.159 113.635 292.989 113.635 294.078C113.635 294.663 113.755 295.154 113.994 295.553C114.233 295.938 114.638 296.263 115.209 296.529C115.794 296.794 116.604 297.033 117.64 297.246L120.09 297.724C122.428 298.176 124.307 298.793 125.728 299.577C127.162 300.347 128.198 301.29 128.836 302.406C129.487 303.508 129.812 304.816 129.812 306.33C129.812 308.229 129.294 309.87 128.258 311.251C127.222 312.632 125.728 313.688 123.776 314.419C121.837 315.149 119.526 315.514 116.843 315.514ZM155.667 306.131H140.387C140.467 307.233 140.759 308.11 141.264 308.761C141.769 309.398 142.565 309.87 143.655 310.175C144.757 310.481 146.244 310.633 148.117 310.633C150.003 310.633 152.062 310.408 154.293 309.956V314.817C151.876 315.308 149.465 315.554 147.061 315.554C142.453 315.554 139.046 314.644 136.841 312.825C134.65 310.992 133.554 308.15 133.554 304.298C133.554 301.947 133.992 299.929 134.869 298.242C135.759 296.542 137.054 295.247 138.754 294.357C140.467 293.454 142.532 293.003 144.949 293.003C147.26 293.003 149.213 293.461 150.806 294.377C152.413 295.28 153.622 296.595 154.432 298.322C155.256 300.035 155.667 302.1 155.667 304.517V306.131ZM144.83 297.186C143.369 297.186 142.267 297.604 141.523 298.441C140.792 299.278 140.401 300.586 140.347 302.366H149.292C149.239 300.599 148.841 299.298 148.097 298.461C147.367 297.611 146.278 297.186 144.83 297.186ZM186.738 293.003C189.315 293.003 191.34 293.773 192.814 295.313C194.288 296.841 195.026 299.212 195.026 302.426V315.136H188.172V302.804C188.172 301.356 187.88 300.321 187.296 299.696C186.725 299.072 185.901 298.76 184.826 298.76C183.152 298.76 181.824 299.291 180.841 300.354C180.921 300.965 180.961 301.629 180.961 302.346V315.136H174.207V302.804C174.207 301.343 173.942 300.307 173.41 299.696C172.879 299.072 172.082 298.76 171.02 298.76C170.17 298.76 169.379 298.926 168.649 299.258C167.919 299.59 167.294 300.075 166.776 300.712V315.136H159.883V293.341H165.521L165.96 295.473H166.278C167.128 294.676 168.131 294.065 169.286 293.64C170.442 293.215 171.704 293.003 173.072 293.003C174.426 293.003 175.628 293.242 176.678 293.72C177.74 294.185 178.61 294.902 179.287 295.871C180.376 294.875 181.558 294.151 182.833 293.7C184.108 293.235 185.41 293.003 186.738 293.003ZM200.389 315.136V293.341H207.282V315.136H200.389ZM203.835 290.194C201.033 290.194 199.632 289.085 199.632 286.867C199.632 285.778 199.977 284.947 200.667 284.376C201.371 283.805 202.427 283.52 203.835 283.52C205.243 283.52 206.292 283.805 206.983 284.376C207.687 284.947 208.039 285.778 208.039 286.867C208.039 289.085 206.637 290.194 203.835 290.194ZM224.772 315.554C220.562 315.554 217.341 314.591 215.11 312.665C212.879 310.74 211.763 307.951 211.763 304.298C211.763 300.633 212.919 297.837 215.229 295.911C217.54 293.972 220.901 293.003 225.31 293.003C227.528 293.003 229.487 293.208 231.187 293.62V298.899C230.204 298.713 229.308 298.581 228.497 298.501C227.687 298.408 226.851 298.362 225.987 298.362C223.517 298.362 221.697 298.846 220.529 299.816C219.373 300.785 218.795 302.273 218.795 304.278C218.795 308.21 221.027 310.175 225.489 310.175C226.339 310.175 227.189 310.115 228.039 309.996C228.902 309.876 229.952 309.671 231.187 309.378V314.638C229.288 315.249 227.149 315.554 224.772 315.554ZM245.918 315.554C243.475 315.554 241.336 315.116 239.504 314.239C237.684 313.363 236.276 312.074 235.28 310.374C234.284 308.674 233.786 306.629 233.786 304.238C233.786 301.835 234.264 299.796 235.22 298.122C236.19 296.436 237.578 295.161 239.384 294.297C241.204 293.434 243.382 293.003 245.918 293.003C248.468 293.003 250.647 293.434 252.453 294.297C254.272 295.147 255.66 296.416 256.617 298.103C257.573 299.776 258.051 301.821 258.051 304.238C258.051 306.616 257.546 308.654 256.537 310.354C255.541 312.054 254.133 313.349 252.313 314.239C250.494 315.116 248.362 315.554 245.918 315.554ZM245.918 310.295C249.451 310.295 251.218 308.283 251.218 304.258C251.218 302.173 250.766 300.653 249.863 299.696C248.96 298.74 247.645 298.262 245.918 298.262C244.192 298.262 242.877 298.74 241.974 299.696C241.071 300.653 240.619 302.16 240.619 304.219C240.619 308.269 242.386 310.295 245.918 310.295ZM262.333 315.136V282.942H269.226V315.136H262.333ZM285.84 315.554C283.396 315.554 281.258 315.116 279.425 314.239C277.606 313.363 276.198 312.074 275.202 310.374C274.206 308.674 273.708 306.629 273.708 304.238C273.708 301.835 274.186 299.796 275.142 298.122C276.112 296.436 277.499 295.161 279.306 294.297C281.125 293.434 283.303 293.003 285.84 293.003C288.39 293.003 290.568 293.434 292.374 294.297C294.194 295.147 295.582 296.416 296.538 298.103C297.494 299.776 297.972 301.821 297.972 304.238C297.972 306.616 297.468 308.654 296.458 310.354C295.462 312.054 294.054 313.349 292.235 314.239C290.415 315.116 288.284 315.554 285.84 315.554ZM285.84 310.295C289.373 310.295 291.139 308.283 291.139 304.258C291.139 302.173 290.688 300.653 289.785 299.696C288.881 298.74 287.567 298.262 285.84 298.262C284.113 298.262 282.799 298.74 281.896 299.696C280.992 300.653 280.541 302.16 280.541 304.219C280.541 308.269 282.307 310.295 285.84 310.295ZM302.449 293.341H308.087L308.525 295.473H308.844C309.787 294.689 310.89 294.085 312.151 293.66C313.426 293.222 314.774 293.003 316.195 293.003C318.905 293.003 321.036 293.779 322.59 295.333C324.144 296.874 324.921 299.258 324.921 302.485V315.136H318.028V302.824C318.028 301.35 317.716 300.307 317.092 299.696C316.468 299.072 315.525 298.76 314.263 298.76C313.347 298.76 312.45 298.926 311.573 299.258C310.697 299.59 309.953 300.068 309.342 300.692V315.136H302.449V293.341ZM337.92 315.554C336.419 315.554 334.958 315.468 333.537 315.295C332.116 315.122 330.814 314.87 329.632 314.538V309.856C330.881 310.202 332.209 310.467 333.617 310.653C335.038 310.826 336.452 310.912 337.86 310.912C339.494 310.912 340.656 310.74 341.346 310.394C342.037 310.036 342.382 309.504 342.382 308.801C342.382 308.283 342.223 307.891 341.904 307.625C341.599 307.346 341.021 307.147 340.171 307.028L335.888 306.43C333.484 306.085 331.757 305.394 330.708 304.358C329.659 303.309 329.134 301.888 329.134 300.095C329.134 297.877 330.097 296.144 332.023 294.895C333.949 293.633 336.877 293.003 340.809 293.003C342.017 293.003 343.232 293.082 344.454 293.242C345.689 293.388 346.765 293.587 347.682 293.839V298.521C346.712 298.255 345.623 298.043 344.414 297.883C343.219 297.724 342.037 297.644 340.868 297.644C338.889 297.644 337.521 297.837 336.764 298.222C336.021 298.594 335.649 299.119 335.649 299.796C335.649 300.261 335.808 300.639 336.127 300.931C336.446 301.21 337.017 301.416 337.84 301.549L342.123 302.147C344.421 302.465 346.128 303.11 347.243 304.079C348.359 305.049 348.917 306.516 348.917 308.482C348.917 309.943 348.498 311.204 347.662 312.267C346.825 313.329 345.583 314.146 343.936 314.717C342.289 315.275 340.284 315.554 337.92 315.554Z" fill="#E2E2E2"/>
<path d="M260.297 187.166C261.747 185.716 261.747 183.298 260.297 181.922L251.595 173.221C250.219 171.77 247.802 171.77 246.351 173.221L239.509 180.026L253.454 193.971L260.297 187.166ZM194.438 225.134V239.08H208.383L249.512 197.913L235.567 183.968L194.438 225.134Z" fill="#E2E2E2"/>
<rect x="55.7812" y="750.657" width="344.25" height="66.9375" rx="15.9375" fill="#11395C"/>
<path d="M202.626 784.256C203.909 784.49 204.889 785.01 205.566 785.813C206.252 786.617 206.596 787.665 206.596 788.956C206.596 790.23 206.266 791.295 205.607 792.153C204.956 793.011 203.877 793.666 202.369 794.118C200.87 794.569 198.869 794.795 196.368 794.795C195.437 794.795 194.444 794.759 193.387 794.687C192.34 794.623 191.333 794.529 190.366 794.402V775.057C191.396 774.822 192.502 774.642 193.685 774.515C194.869 774.38 196.047 774.312 197.221 774.312C200.292 774.312 202.527 774.777 203.927 775.707C205.336 776.638 206.04 778.024 206.04 779.866C206.04 780.968 205.742 781.907 205.146 782.684C204.559 783.452 203.719 783.976 202.626 784.256ZM197.628 777.062C196.39 777.062 195.243 777.166 194.187 777.374V782.928H198.129C199.601 782.928 200.676 782.693 201.353 782.223C202.039 781.754 202.383 781.018 202.383 780.015C202.383 779.32 202.224 778.755 201.908 778.322C201.601 777.888 201.1 777.572 200.405 777.374C199.709 777.166 198.784 777.062 197.628 777.062ZM197.343 792.045C198.788 792.045 199.926 791.928 200.757 791.693C201.588 791.449 202.17 791.097 202.504 790.636C202.848 790.166 203.019 789.561 203.019 788.821C203.019 787.737 202.662 786.951 201.949 786.464C201.245 785.967 200.098 785.719 198.508 785.719H194.187V791.869C195.099 791.986 196.151 792.045 197.343 792.045ZM223.17 788.279H212.63C212.684 789.191 212.897 789.927 213.267 790.487C213.646 791.038 214.224 791.444 215.001 791.706C215.777 791.959 216.807 792.086 218.089 792.086C219.345 792.086 220.745 791.91 222.289 791.557V794.307C220.718 794.678 219.133 794.863 217.534 794.863C214.599 794.863 212.413 794.244 210.977 793.007C209.55 791.76 208.837 789.837 208.837 787.236C208.837 785.628 209.121 784.251 209.69 783.104C210.268 781.957 211.108 781.086 212.21 780.489C213.321 779.884 214.653 779.582 216.206 779.582C218.464 779.582 220.189 780.255 221.381 781.6C222.574 782.946 223.17 784.861 223.17 787.344V788.279ZM216.139 781.98C215.01 781.98 214.147 782.318 213.551 782.996C212.964 783.664 212.653 784.703 212.617 786.111H219.62C219.584 784.703 219.277 783.664 218.699 782.996C218.121 782.318 217.268 781.98 216.139 781.98ZM232.158 800.823C230.162 800.823 228.292 800.58 226.549 800.092V797.125C228.464 797.658 230.252 797.924 231.914 797.924C233.106 797.924 234.063 797.789 234.786 797.518C235.517 797.247 236.05 796.818 236.384 796.231C236.727 795.653 236.899 794.885 236.899 793.928V792.939H236.709C236.131 793.499 235.449 793.928 234.664 794.226C233.878 794.515 233.006 794.66 232.049 794.66C230.821 794.66 229.71 794.398 228.717 793.874C227.732 793.341 226.951 792.537 226.373 791.462C225.795 790.388 225.506 789.074 225.506 787.52C225.506 784.964 226.269 783.005 227.795 781.641C229.322 780.268 231.561 779.582 234.515 779.582C235.562 779.582 236.632 779.654 237.725 779.799C238.818 779.943 239.816 780.146 240.719 780.408V793.224C240.719 794.994 240.412 796.439 239.798 797.559C239.184 798.678 238.245 799.5 236.98 800.024C235.725 800.557 234.117 800.823 232.158 800.823ZM233.323 791.584C233.991 791.584 234.637 791.476 235.26 791.259C235.883 791.043 236.429 790.713 236.899 790.27V782.792C236.05 782.585 235.142 782.481 234.176 782.481C230.934 782.481 229.313 784.057 229.313 787.209C229.313 788.744 229.665 789.859 230.369 790.555C231.083 791.241 232.067 791.584 233.323 791.584ZM244.853 794.592V779.812H248.673V794.592H244.853ZM246.763 777.292C245.968 777.292 245.368 777.13 244.961 776.805C244.564 776.471 244.365 775.987 244.365 775.355C244.365 774.723 244.564 774.24 244.961 773.906C245.368 773.572 245.968 773.404 246.763 773.404C247.558 773.404 248.154 773.572 248.551 773.906C248.958 774.24 249.161 774.723 249.161 775.355C249.161 775.987 248.958 776.471 248.551 776.805C248.154 777.13 247.558 777.292 246.763 777.292ZM252.817 779.812H255.96L256.204 781.356H256.393C257.062 780.788 257.834 780.35 258.71 780.042C259.595 779.735 260.53 779.582 261.514 779.582C263.311 779.582 264.725 780.088 265.754 781.099C266.784 782.102 267.299 783.664 267.299 785.786V794.592H263.478V785.962C263.478 784.834 263.225 784.025 262.72 783.538C262.223 783.05 261.482 782.806 260.498 782.806C259.794 782.806 259.094 782.937 258.398 783.199C257.712 783.461 257.125 783.849 256.637 784.364V794.592H252.817V779.812Z" fill="#E2E2E2"/>
<path d="M85.4143 481.584H86.9993V496.968H84.6477V484.433L80.0067 487.727V485.459L85.4143 481.584ZM93.4982 487.955C95.1971 488.045 96.5611 488.269 97.5901 488.628C98.6191 488.988 99.365 489.485 99.8277 490.12C100.29 490.749 100.522 491.539 100.522 492.493C100.522 494.012 99.9969 495.172 98.9472 495.973C97.8974 496.767 96.3228 497.165 94.2233 497.165C93.4844 497.165 92.7419 497.106 91.9961 496.988C91.2502 496.878 90.5492 496.719 89.8931 496.512V494.751C90.5699 494.951 91.2744 495.11 92.0064 495.227C92.7385 495.338 93.4498 495.393 94.1404 495.393C95.5493 495.393 96.5956 495.155 97.2793 494.678C97.9631 494.195 98.3049 493.48 98.3049 492.534C98.3049 491.926 98.1392 491.429 97.8077 491.042C97.4831 490.655 96.9271 490.352 96.1398 490.131C95.3525 489.903 94.2579 489.751 92.8559 489.675L90.5147 489.55L91.0844 481.636H99.8588V483.397H93.1667L92.8455 487.924L93.4982 487.955ZM121.533 485.521C122.776 485.521 123.75 485.887 124.454 486.619C125.159 487.351 125.511 488.49 125.511 490.037V496.968H123.211V490.151C123.211 489.205 123.014 488.525 122.621 488.111C122.234 487.696 121.685 487.489 120.974 487.489C120.456 487.489 119.955 487.593 119.472 487.8C118.988 488 118.567 488.318 118.208 488.753C118.27 489.133 118.301 489.554 118.301 490.017V496.968H116.043V490.151C116.043 489.198 115.856 488.518 115.483 488.111C115.117 487.696 114.582 487.489 113.877 487.489C113.339 487.489 112.817 487.606 112.313 487.841C111.816 488.076 111.388 488.425 111.029 488.887V496.968H108.729V485.697H110.635L110.78 486.93H110.915C111.371 486.474 111.906 486.125 112.52 485.883C113.135 485.642 113.795 485.521 114.499 485.521C115.21 485.521 115.832 485.652 116.364 485.914C116.902 486.177 117.331 486.581 117.648 487.126C118.222 486.567 118.843 486.159 119.513 485.904C120.183 485.648 120.856 485.521 121.533 485.521ZM128.78 496.968V485.697H131.08V496.968H128.78ZM129.93 483.501C129.439 483.501 129.067 483.394 128.811 483.179C128.562 482.965 128.438 482.658 128.438 482.257C128.438 481.85 128.562 481.539 128.811 481.325C129.067 481.104 129.439 480.994 129.93 480.994C130.42 480.994 130.79 481.104 131.038 481.325C131.294 481.539 131.422 481.85 131.422 482.257C131.422 482.658 131.294 482.965 131.038 483.179C130.79 483.394 130.42 483.501 129.93 483.501ZM134.506 485.697H136.412L136.557 486.93H136.692C137.224 486.481 137.835 486.135 138.525 485.894C139.216 485.645 139.938 485.521 140.69 485.521C142.037 485.521 143.09 485.89 143.85 486.629C144.617 487.368 145 488.521 145 490.089V496.968H142.7V490.182C142.7 489.222 142.483 488.535 142.048 488.121C141.612 487.7 140.974 487.489 140.131 487.489C139.53 487.489 138.933 487.603 138.339 487.831C137.752 488.052 137.241 488.39 136.806 488.846V496.968H134.506V485.697ZM152.45 497.154C151.096 497.154 150.036 496.792 149.269 496.067C148.503 495.334 148.119 494.195 148.119 492.648V485.697H150.419V492.524C150.419 493.47 150.633 494.15 151.061 494.564C151.497 494.979 152.115 495.186 152.916 495.186C153.517 495.186 154.107 495.072 154.687 494.844C155.274 494.609 155.782 494.267 156.21 493.819V485.697H158.51V496.968H156.604L156.459 495.766H156.345C155.813 496.215 155.212 496.56 154.542 496.802C153.872 497.037 153.175 497.154 152.45 497.154ZM167.679 495.29C167.9 495.29 168.124 495.276 168.352 495.248C168.58 495.22 168.863 495.172 169.202 495.103V496.926C168.497 497.092 167.796 497.175 167.099 497.175C165.71 497.175 164.654 496.837 163.929 496.16C163.203 495.483 162.841 494.461 162.841 493.093V487.551H160.593V485.697H162.841L163.235 481.636H165.141V485.697H169.046V487.551H165.141V492.669C165.141 493.601 165.348 494.271 165.762 494.678C166.177 495.086 166.815 495.29 167.679 495.29ZM180.878 492.016H172.704C172.746 492.831 172.922 493.49 173.233 493.995C173.544 494.492 174.01 494.858 174.631 495.093C175.253 495.328 176.051 495.445 177.024 495.445C177.991 495.445 179.062 495.296 180.236 494.999V496.709C179.013 497.02 177.836 497.175 176.703 497.175C174.604 497.175 173.029 496.702 171.979 495.756C170.936 494.803 170.415 493.335 170.415 491.353C170.415 490.11 170.626 489.053 171.047 488.183C171.468 487.313 172.076 486.653 172.87 486.204C173.671 485.749 174.635 485.521 175.761 485.521C177.418 485.521 178.685 486.028 179.562 487.043C180.439 488.052 180.878 489.509 180.878 491.415V492.016ZM175.729 487.043C174.763 487.043 174.024 487.337 173.513 487.924C173.001 488.504 172.729 489.405 172.694 490.628H178.713C178.685 489.405 178.423 488.504 177.926 487.924C177.428 487.337 176.696 487.043 175.729 487.043ZM186.909 497.175C185.494 497.175 184.209 497.009 183.056 496.678V495.01C184.292 495.355 185.58 495.528 186.92 495.528C187.956 495.528 188.702 495.39 189.157 495.113C189.613 494.83 189.841 494.419 189.841 493.881C189.841 493.591 189.789 493.352 189.686 493.166C189.582 492.973 189.406 492.814 189.157 492.689C188.909 492.558 188.567 492.458 188.132 492.389L186.133 492.078C184.972 491.892 184.133 491.539 183.615 491.021C183.104 490.504 182.849 489.809 182.849 488.939C182.849 487.883 183.284 487.05 184.154 486.443C185.031 485.828 186.367 485.521 188.163 485.521C188.729 485.521 189.292 485.559 189.852 485.635C190.418 485.704 190.939 485.807 191.416 485.945V487.603C190.366 487.313 189.285 487.168 188.173 487.168C187.034 487.168 186.229 487.316 185.76 487.613C185.29 487.91 185.055 488.321 185.055 488.846C185.055 489.24 185.176 489.561 185.418 489.809C185.659 490.051 186.091 490.227 186.713 490.338L188.712 490.649C189.865 490.828 190.711 491.16 191.25 491.643C191.789 492.126 192.058 492.827 192.058 493.746C192.058 494.457 191.865 495.069 191.478 495.58C191.098 496.091 190.521 496.484 189.748 496.761C188.981 497.037 188.035 497.175 186.909 497.175Z" fill="#E2E2E2" fill-opacity="0.85"/>
<path d="M140.944 442.096C150.549 442.096 158.407 434.238 158.407 424.634C158.407 415.029 150.549 407.171 140.944 407.171C131.34 407.171 123.482 415.029 123.482 424.634C123.482 434.238 131.34 442.096 140.944 442.096ZM140.944 402.806C152.95 402.806 162.772 412.628 162.772 424.634C162.772 436.639 152.95 446.462 140.944 446.462C128.939 446.462 119.116 436.639 119.116 424.634C119.116 412.628 128.939 402.806 140.944 402.806ZM148.147 433.801L145.31 435.548L138.761 424.197V413.72H142.036V423.324L148.147 433.801Z" fill="#E2E2E2" fill-opacity="0.85"/>
<path d="M251.06 481.415H261.554V482.648L255.431 496.747H253.007L258.984 483.301H251.06V481.415ZM277.78 495.587H277.666C277.218 496.029 276.686 496.367 276.071 496.602C275.456 496.837 274.776 496.954 274.03 496.954C273.084 496.954 272.238 496.757 271.492 496.364C270.753 495.963 270.166 495.349 269.731 494.52C269.303 493.691 269.089 492.648 269.089 491.391C269.089 489.388 269.641 487.873 270.746 486.844C271.858 485.814 273.502 485.3 275.677 485.3C276.43 485.3 277.186 485.352 277.946 485.455C278.713 485.559 279.424 485.707 280.08 485.901V501.305H277.78V495.587ZM274.745 495.069C275.318 495.069 275.867 494.972 276.392 494.779C276.924 494.579 277.387 494.271 277.78 493.857V487.361C277.083 487.182 276.309 487.092 275.46 487.092C274.106 487.092 273.088 487.431 272.404 488.107C271.727 488.777 271.389 489.81 271.389 491.205C271.389 492.565 271.686 493.549 272.28 494.157C272.874 494.765 273.695 495.069 274.745 495.069ZM287.685 496.934C286.331 496.934 285.271 496.571 284.504 495.846C283.738 495.114 283.355 493.974 283.355 492.427V485.476H285.654V492.303C285.654 493.249 285.868 493.929 286.297 494.344C286.732 494.758 287.35 494.965 288.151 494.965C288.752 494.965 289.342 494.851 289.922 494.623C290.509 494.389 291.017 494.047 291.445 493.598V485.476H293.745V496.747H291.839L291.694 495.545H291.58C291.048 495.994 290.447 496.34 289.777 496.581C289.107 496.816 288.41 496.934 287.685 496.934ZM306.988 491.795H298.814C298.856 492.61 299.032 493.27 299.343 493.774C299.654 494.271 300.12 494.637 300.741 494.872C301.363 495.107 302.161 495.224 303.134 495.224C304.101 495.224 305.172 495.076 306.346 494.779V496.488C305.123 496.799 303.946 496.954 302.813 496.954C300.714 496.954 299.139 496.481 298.089 495.535C297.046 494.582 296.525 493.114 296.525 491.132C296.525 489.889 296.736 488.833 297.157 487.962C297.578 487.092 298.186 486.433 298.98 485.984C299.781 485.528 300.745 485.3 301.87 485.3C303.528 485.3 304.795 485.808 305.672 486.823C306.549 487.831 306.988 489.288 306.988 491.194V491.795ZM301.839 486.823C300.873 486.823 300.134 487.116 299.623 487.703C299.111 488.283 298.839 489.185 298.804 490.407H304.823C304.795 489.185 304.533 488.283 304.036 487.703C303.538 487.116 302.806 486.823 301.839 486.823ZM313.019 496.954C311.604 496.954 310.319 496.789 309.166 496.457V494.789C310.402 495.134 311.69 495.307 313.03 495.307C314.066 495.307 314.812 495.169 315.267 494.893C315.723 494.61 315.951 494.199 315.951 493.66C315.951 493.37 315.899 493.132 315.796 492.945C315.692 492.752 315.516 492.593 315.267 492.469C315.019 492.337 314.677 492.237 314.242 492.168L312.242 491.857C311.082 491.671 310.243 491.319 309.725 490.801C309.214 490.283 308.959 489.589 308.959 488.719C308.959 487.662 309.394 486.83 310.264 486.222C311.141 485.607 312.477 485.3 314.273 485.3C314.839 485.3 315.402 485.338 315.962 485.414C316.528 485.483 317.049 485.587 317.526 485.725V487.382C316.476 487.092 315.395 486.947 314.283 486.947C313.144 486.947 312.339 487.096 311.87 487.393C311.4 487.69 311.165 488.1 311.165 488.625C311.165 489.019 311.286 489.34 311.528 489.589C311.769 489.83 312.201 490.007 312.823 490.117L314.822 490.428C315.975 490.607 316.821 490.939 317.36 491.422C317.899 491.906 318.168 492.607 318.168 493.525C318.168 494.237 317.975 494.848 317.588 495.359C317.208 495.87 316.631 496.264 315.858 496.54C315.091 496.816 314.145 496.954 313.019 496.954ZM326.182 495.069C326.403 495.069 326.627 495.055 326.855 495.027C327.083 495 327.366 494.951 327.705 494.882V496.706C327 496.871 326.299 496.954 325.602 496.954C324.214 496.954 323.157 496.616 322.432 495.939C321.707 495.262 321.344 494.24 321.344 492.873V487.33H319.096V485.476H321.344L321.738 481.415H323.644V485.476H327.549V487.33H323.644V492.448C323.644 493.38 323.851 494.05 324.266 494.458C324.68 494.865 325.319 495.069 326.182 495.069ZM329.773 496.747V485.476H332.073V496.747H329.773ZM330.923 483.28C330.432 483.28 330.059 483.173 329.804 482.959C329.555 482.745 329.431 482.437 329.431 482.037C329.431 481.629 329.555 481.319 329.804 481.104C330.059 480.883 330.432 480.773 330.923 480.773C331.413 480.773 331.783 480.883 332.031 481.104C332.287 481.319 332.414 481.629 332.414 482.037C332.414 482.437 332.287 482.745 332.031 482.959C331.783 483.173 331.413 483.28 330.923 483.28ZM340.554 496.954C339.401 496.954 338.396 496.737 337.54 496.302C336.69 495.867 336.031 495.214 335.561 494.344C335.098 493.474 334.867 492.396 334.867 491.112C334.867 489.841 335.095 488.774 335.551 487.911C336.013 487.04 336.669 486.388 337.519 485.953C338.368 485.518 339.38 485.3 340.554 485.3C342.35 485.3 343.745 485.79 344.739 486.771C345.734 487.745 346.231 489.192 346.231 491.112C346.231 492.375 345.996 493.446 345.527 494.323C345.057 495.193 344.394 495.849 343.538 496.291C342.688 496.733 341.694 496.954 340.554 496.954ZM340.554 495.131C342.806 495.131 343.931 493.795 343.931 491.122C343.931 489.734 343.641 488.722 343.061 488.087C342.481 487.444 341.645 487.123 340.554 487.123C339.463 487.123 338.624 487.441 338.037 488.076C337.457 488.712 337.167 489.72 337.167 491.101C337.167 493.788 338.296 495.131 340.554 495.131ZM349.015 485.476H350.921L351.066 486.709H351.2C351.732 486.26 352.343 485.915 353.034 485.673C353.725 485.424 354.446 485.3 355.199 485.3C356.546 485.3 357.599 485.669 358.359 486.408C359.125 487.147 359.509 488.301 359.509 489.868V496.747H357.209V489.962C357.209 489.002 356.991 488.315 356.556 487.9C356.121 487.479 355.482 487.268 354.64 487.268C354.039 487.268 353.441 487.382 352.848 487.61C352.26 487.831 351.749 488.17 351.314 488.625V496.747H349.015V485.476ZM366.212 496.954C364.797 496.954 363.512 496.789 362.359 496.457V494.789C363.595 495.134 364.883 495.307 366.223 495.307C367.259 495.307 368.005 495.169 368.46 494.893C368.916 494.61 369.144 494.199 369.144 493.66C369.144 493.37 369.092 493.132 368.989 492.945C368.885 492.752 368.709 492.593 368.46 492.469C368.212 492.337 367.87 492.237 367.435 492.168L365.435 491.857C364.275 491.671 363.436 491.319 362.918 490.801C362.407 490.283 362.152 489.589 362.152 488.719C362.152 487.662 362.587 486.83 363.457 486.222C364.334 485.607 365.67 485.3 367.466 485.3C368.032 485.3 368.595 485.338 369.154 485.414C369.721 485.483 370.242 485.587 370.719 485.725V487.382C369.669 487.092 368.588 486.947 367.476 486.947C366.337 486.947 365.532 487.096 365.063 487.393C364.593 487.69 364.358 488.1 364.358 488.625C364.358 489.019 364.479 489.34 364.721 489.589C364.962 489.83 365.394 490.007 366.016 490.117L368.015 490.428C369.168 490.607 370.014 490.939 370.553 491.422C371.092 491.906 371.361 492.607 371.361 493.525C371.361 494.237 371.168 494.848 370.781 495.359C370.401 495.87 369.824 496.264 369.051 496.54C368.284 496.816 367.338 496.954 366.212 496.954Z" fill="#E2E2E2" fill-opacity="0.85"/>
<path d="M305.881 439.914H312.429V446.463H305.881V439.914ZM310.246 402.807C321.924 403.287 327.01 415.074 320.069 423.914C318.257 426.097 315.332 427.538 313.891 429.371C312.429 431.183 312.429 433.366 312.429 435.549H305.881C305.881 431.903 305.881 428.826 307.343 426.643C308.784 424.46 311.709 423.172 313.52 421.732C318.803 416.842 317.493 409.923 310.246 409.355C308.509 409.355 306.844 410.045 305.616 411.273C304.388 412.501 303.698 414.167 303.698 415.903H297.149C297.149 412.43 298.529 409.099 300.985 406.643C303.441 404.186 306.773 402.807 310.246 402.807Z" fill="#E2E2E2" fill-opacity="0.85"/>
<path d="M181.574 661.032H183.159V676.416H180.807V663.881L176.166 667.175V664.907L181.574 661.032ZM189.658 667.403C191.357 667.493 192.721 667.718 193.75 668.077C194.779 668.436 195.525 668.933 195.987 669.568C196.45 670.197 196.681 670.988 196.681 671.941C196.681 673.46 196.157 674.62 195.107 675.422C194.057 676.216 192.482 676.613 190.383 676.613C189.644 676.613 188.902 676.554 188.156 676.437C187.41 676.326 186.709 676.167 186.053 675.96V674.199C186.73 674.399 187.434 674.558 188.166 674.676C188.898 674.786 189.609 674.841 190.3 674.841C191.709 674.841 192.755 674.603 193.439 674.127C194.123 673.643 194.465 672.928 194.465 671.982C194.465 671.374 194.299 670.877 193.967 670.49C193.643 670.104 193.087 669.8 192.299 669.579C191.512 669.351 190.418 669.199 189.016 669.123L186.674 668.999L187.244 661.084H196.018V662.845H189.326L189.005 667.372L189.658 667.403ZM204.821 676.613C202.881 676.613 201.368 675.974 200.284 674.696C199.206 673.412 198.668 671.43 198.668 668.75C198.668 666.064 199.203 664.081 200.273 662.804C201.351 661.526 202.867 660.887 204.821 660.887C206.783 660.887 208.298 661.526 209.369 662.804C210.446 664.081 210.985 666.064 210.985 668.75C210.985 671.43 210.443 673.412 209.359 674.696C208.281 675.974 206.769 676.613 204.821 676.613ZM204.832 674.665C205.646 674.665 206.334 674.482 206.893 674.116C207.459 673.75 207.898 673.136 208.209 672.272C208.519 671.402 208.675 670.235 208.675 668.771C208.675 667.293 208.519 666.119 208.209 665.249C207.898 664.372 207.459 663.75 206.893 663.384C206.334 663.018 205.646 662.835 204.832 662.835C204.01 662.835 203.316 663.018 202.749 663.384C202.19 663.75 201.755 664.368 201.444 665.238C201.14 666.102 200.988 667.265 200.988 668.729C200.988 670.207 201.14 671.385 201.444 672.262C201.755 673.132 202.19 673.75 202.749 674.116C203.316 674.482 204.01 674.665 204.832 674.665ZM219.841 665.145H221.778L221.923 666.419H222.037C222.486 665.963 223.021 665.608 223.643 665.352C224.264 665.097 224.945 664.969 225.684 664.969C226.685 664.969 227.569 665.162 228.336 665.549C229.109 665.936 229.717 666.547 230.159 667.383C230.608 668.218 230.832 669.278 230.832 670.563C230.832 672.538 230.287 674.044 229.195 675.08C228.104 676.109 226.526 676.623 224.461 676.623C223.784 676.623 223.011 676.561 222.141 676.437V680.974H219.841V665.145ZM224.347 674.821C225.763 674.821 226.813 674.486 227.496 673.816C228.187 673.146 228.532 672.117 228.532 670.729C228.532 668.146 227.4 666.854 225.134 666.854C224.554 666.854 224.005 666.961 223.487 667.175C222.969 667.39 222.52 667.724 222.141 668.18V674.572C222.783 674.738 223.518 674.821 224.347 674.821ZM238.796 676.623C237.643 676.623 236.638 676.406 235.782 675.971C234.932 675.535 234.273 674.883 233.803 674.013C233.34 673.142 233.109 672.065 233.109 670.781C233.109 669.51 233.337 668.443 233.793 667.579C234.256 666.709 234.912 666.057 235.761 665.622C236.611 665.186 237.622 664.969 238.796 664.969C240.592 664.969 241.987 665.459 242.982 666.44C243.976 667.414 244.473 668.861 244.473 670.781C244.473 672.044 244.239 673.115 243.769 673.992C243.299 674.862 242.636 675.518 241.78 675.96C240.93 676.402 239.936 676.623 238.796 676.623ZM238.796 674.8C241.048 674.8 242.174 673.464 242.174 670.791C242.174 669.403 241.883 668.391 241.303 667.756C240.723 667.113 239.888 666.792 238.796 666.792C237.705 666.792 236.866 667.11 236.279 667.745C235.699 668.381 235.409 669.389 235.409 670.77C235.409 673.457 236.538 674.8 238.796 674.8ZM247.196 676.416V665.145H249.496V676.416H247.196ZM248.346 662.949C247.856 662.949 247.483 662.842 247.227 662.628C246.979 662.414 246.854 662.106 246.854 661.706C246.854 661.298 246.979 660.987 247.227 660.773C247.483 660.552 247.856 660.442 248.346 660.442C248.836 660.442 249.206 660.552 249.454 660.773C249.71 660.987 249.838 661.298 249.838 661.706C249.838 662.106 249.71 662.414 249.454 662.628C249.206 662.842 248.836 662.949 248.346 662.949ZM252.922 665.145H254.828L254.973 666.378H255.108C255.64 665.929 256.251 665.584 256.941 665.342C257.632 665.093 258.354 664.969 259.107 664.969C260.453 664.969 261.507 665.338 262.266 666.077C263.033 666.816 263.416 667.97 263.416 669.537V676.416H261.116V669.631C261.116 668.671 260.899 667.983 260.464 667.569C260.029 667.148 259.39 666.937 258.547 666.937C257.946 666.937 257.349 667.051 256.755 667.279C256.168 667.5 255.657 667.838 255.222 668.294V676.416H252.922V665.145ZM272.316 674.738C272.537 674.738 272.762 674.724 272.989 674.696C273.217 674.669 273.501 674.62 273.839 674.551V676.375C273.134 676.54 272.433 676.623 271.736 676.623C270.348 676.623 269.291 676.285 268.566 675.608C267.841 674.931 267.478 673.909 267.478 672.542V666.999H265.23V665.145H267.478L267.872 661.084H269.778V665.145H273.684V666.999H269.778V672.117C269.778 673.049 269.985 673.719 270.4 674.127C270.814 674.534 271.453 674.738 272.316 674.738ZM278.982 676.623C277.566 676.623 276.282 676.457 275.128 676.126V674.458C276.365 674.803 277.653 674.976 278.992 674.976C280.028 674.976 280.774 674.838 281.23 674.562C281.686 674.279 281.914 673.868 281.914 673.329C281.914 673.039 281.862 672.801 281.758 672.614C281.655 672.421 281.479 672.262 281.23 672.138C280.981 672.006 280.64 671.906 280.204 671.837L278.205 671.526C277.045 671.34 276.206 670.988 275.688 670.47C275.177 669.952 274.921 669.258 274.921 668.387C274.921 667.331 275.356 666.499 276.226 665.891C277.104 665.276 278.44 664.969 280.235 664.969C280.802 664.969 281.365 665.007 281.924 665.083C282.49 665.152 283.012 665.256 283.488 665.394V667.051C282.439 666.761 281.358 666.616 280.246 666.616C279.106 666.616 278.302 666.765 277.832 667.061C277.362 667.358 277.128 667.769 277.128 668.294C277.128 668.688 277.249 669.009 277.49 669.258C277.732 669.499 278.164 669.676 278.785 669.786L280.785 670.097C281.938 670.276 282.784 670.608 283.323 671.091C283.861 671.575 284.131 672.276 284.131 673.194C284.131 673.906 283.937 674.517 283.55 675.028C283.171 675.539 282.594 675.933 281.82 676.209C281.054 676.485 280.108 676.623 278.982 676.623Z" fill="#E2E2E2" fill-opacity="0.85"/>
<path d="M234.594 578.51L232.236 580.867L235.729 584.36C236.209 584.905 236.449 585.538 236.449 586.259C236.449 586.979 236.209 587.656 235.729 588.136L227.98 596.016L230.163 598.373L238.086 590.493C239.243 589.205 239.811 587.787 239.811 586.259C239.811 584.731 239.243 583.29 238.086 582.002L234.594 578.51ZM225.906 582.919L223.549 585.276L224.88 586.499C225.36 586.979 225.6 587.634 225.6 588.441C225.6 589.249 225.36 589.904 224.88 590.384L223.549 591.607L225.906 593.964L227.128 592.632C228.285 591.345 228.875 589.948 228.875 588.441C228.875 586.87 228.285 585.451 227.128 584.141L225.906 582.919ZM248.716 586.39C247.21 586.39 245.813 586.979 244.525 588.136L232.236 600.447L234.594 602.63L246.774 590.493C247.319 589.948 247.974 589.664 248.716 589.664C249.458 589.664 250.113 589.948 250.659 590.493L251.991 591.825L254.239 589.467L253.016 588.136C251.729 586.979 250.288 586.39 248.716 586.39ZM218.157 592.807L207.243 623.366L237.802 612.452L218.157 592.807ZM244.351 599.486C242.823 599.486 241.426 600.076 240.116 601.233L236.645 604.703L239.003 607.061L242.474 603.59C243.019 603.044 243.63 602.761 244.351 602.761C245.071 602.761 245.726 603.044 246.272 603.59L249.808 607.061L252.1 604.812L248.607 601.233C247.319 600.076 245.879 599.486 244.351 599.486Z" fill="#E2E2E2" fill-opacity="0.85"/>
</svg>
