<svg width="90" height="90" viewBox="0 0 90 90" fill="none" xmlns="http://www.w3.org/2000/svg">
<path d="M78.75 71.25V75H11.25V71.25L18.75 63.75V41.25C18.75 29.625 26.3625 19.3875 37.5 16.0875V15C37.5 13.0109 38.2902 11.1032 39.6967 9.6967C41.1032 8.29018 43.0109 7.5 45 7.5C46.9891 7.5 48.8968 8.29018 50.3033 9.6967C51.7098 11.1032 52.5 13.0109 52.5 15V16.0875C63.6375 19.3875 71.25 29.625 71.25 41.25V63.75L78.75 71.25ZM52.5 78.75C52.5 80.7391 51.7098 82.6468 50.3033 84.0533C48.8968 85.4598 46.9891 86.25 45 86.25C43.0109 86.25 41.1032 85.4598 39.6967 84.0533C38.2902 82.6468 37.5 80.7391 37.5 78.75" fill="#2C6393"/>
</svg>
