<svg width="90" height="90" viewBox="0 0 90 90" fill="none" xmlns="http://www.w3.org/2000/svg">
<path d="M61.875 45C63.1061 45 64.3252 44.7575 65.4627 44.2864C66.6001 43.8152 67.6336 43.1247 68.5041 42.2541C69.3747 41.3836 70.0652 40.3501 70.5364 39.2127C71.0075 38.0752 71.25 36.8561 71.25 35.625C71.25 33.1386 70.2623 30.754 68.5041 28.9959C66.746 27.2377 64.3614 26.25 61.875 26.25C59.3886 26.25 57.004 27.2377 55.2459 28.9959C53.4877 30.754 52.5 33.1386 52.5 35.625C52.5 36.8561 52.7425 38.0752 53.2136 39.2127C53.6848 40.3501 54.3753 41.3836 55.2459 42.2541C57.004 44.0123 59.3886 45 61.875 45ZM33.75 41.25C36.7337 41.25 39.5952 40.0647 41.705 37.955C43.8147 35.8452 45 32.9837 45 30C45 27.0163 43.8147 24.1548 41.705 22.045C39.5952 19.9353 36.7337 18.75 33.75 18.75C30.7663 18.75 27.9048 19.9353 25.795 22.045C23.6853 24.1548 22.5 27.0163 22.5 30C22.5 32.9837 23.6853 35.8452 25.795 37.955C27.9048 40.0647 30.7663 41.25 33.75 41.25ZM61.875 52.5C55.0125 52.5 41.25 55.95 41.25 62.8125V71.25H82.5V62.8125C82.5 55.95 68.7375 52.5 61.875 52.5ZM33.75 48.75C25.0125 48.75 7.5 53.1375 7.5 61.875V71.25H33.75V62.8125C33.75 59.625 34.9875 54.0375 42.6375 49.8C39.375 49.125 36.225 48.75 33.75 48.75Z" fill="#2C6393"/>
</svg>
