<svg width="90" height="90" viewBox="0 0 90 90" fill="none" xmlns="http://www.w3.org/2000/svg">
<path d="M59.4 38.25L55.6125 42.0375L47.85 34.425L51.6375 30.6C52.3875 29.8125 53.6625 29.775 54.5625 30.6L59.4 35.2875C60.1875 36.075 60.225 37.35 59.4 38.25ZM30 52.1625L45.6375 36.45L53.4 44.25L37.8 60H30V52.1625ZM48.75 7.5V15C65.2125 17.025 76.875 31.9875 74.85 48.45C74.0222 55.0837 71.0062 61.252 66.2791 65.9791C61.552 70.7062 55.3837 73.7222 48.75 74.55V82.05C69.375 79.8 84.1875 61.275 81.9375 40.6875C79.9875 23.2125 66.225 9.375 48.75 7.5ZM41.25 7.5C33.9 8.175 26.9625 11.0625 21.2625 15.75L26.625 21.525C30.825 18.15 35.8875 15.975 41.25 15.225V7.725V7.5ZM15.975 21.2625C11.2713 26.9436 8.38387 33.9074 7.6875 41.25H15.1875C15.9 35.925 18 30.8625 21.3375 26.625L15.975 21.2625ZM7.725 48.75C8.475 56.1 11.3625 63.0375 16.0125 68.7375L21.3375 63.375C18.026 59.136 15.9148 54.0847 15.225 48.75H7.725ZM26.475 68.8875L21.2625 74.025C26.9429 78.7601 33.8973 81.7089 41.25 82.5V75C35.9153 74.3102 30.864 72.199 26.625 68.8875H26.475Z" fill="#2C6393"/>
</svg>
